<?xml version="1.0" encoding="utf-8"?>
<!-- Generator: Adobe Illustrator 21.0.0, SVG Export Plug-In . SVG Version: 6.00 Build 0)  -->
<svg version="1.1" id="Layer_1" xmlns="http://www.w3.org/2000/svg" xmlns:xlink="http://www.w3.org/1999/xlink" x="0px" y="0px"
	 width="1400px" height="980px" viewBox="0 0 1400 980" enable-background="new 0 0 1400 980" xml:space="preserve">
<g>
	<g>
		<g>
			<rect id="XMLID_6_" fill="#507282" width="1400" height="980"/>
		</g>
	</g>
	<path fill="#FFFFFF" d="M0,0v980h1400V0H0z M1371.7,891.9c0,37.8-30.6,68.4-68.4,68.4H96.6c-37.8,0-68.4-30.6-68.4-68.4V88.1
		c0-37.8,30.6-68.4,68.4-68.4h1206.7c37.8,0,68.4,30.6,68.4,68.4V891.9z"/>
	<circle fill="#7895A4" cx="700" cy="480.4" r="299.7"/>
	<g>
		<path fill="#7895A4" d="M700,872.6c-33.5,0-66.7-4.2-98.8-12.5l3.3-12.6c31,8,63.1,12.1,95.5,12.1c40.1,0,79.6-6.2,117.3-18.5
			l4,12.4C782.3,866.1,741.5,872.6,700,872.6z M579,853.5c-71.2-23.1-134.1-66-181.9-124.1l10-8.3c46.2,56.2,107.1,97.7,175.9,120
			L579,853.5z M843.1,845.6l-4.7-12.1c67.4-26.4,125.6-71.5,168.4-130.3l10.5,7.6C973.1,771.7,912.8,818.3,843.1,845.6z M383,711.2
			C338.7,650.6,313,578.9,308.6,504l13-0.8c4.3,72.4,29.2,141.7,71.9,200.3L383,711.2z M1030.3,691.8l-10.9-7
			c39.1-60.9,59.7-131.6,59.7-204.3l0-0.8l13,0l0,0.9C1092.1,555.7,1070.8,628.7,1030.3,691.8z M320.9,480.9h-13v-0.4
			c0-75.1,21.3-148,61.5-211l11,7c-38.9,60.9-59.5,131.4-59.5,204V480.9z M1078.4,457.3c-4.4-72.4-29.3-141.7-72.1-200.3l10.5-7.7
			c44.3,60.6,70.1,132.2,74.6,207.1L1078.4,457.3z M393,258l-10.5-7.6c44.2-60.9,104.3-107.5,174-134.9l4.8,12.1
			C493.9,154,435.7,199.1,393,258z M992.6,239.3c-46.3-56.1-107.2-97.5-176-119.8l4-12.4c71.2,23,134.2,65.8,182.1,123.9
			L992.6,239.3z M582.3,120l-4-12.4c39.2-12.8,80.1-19.3,121.8-19.3c33.3,0,66.4,4.2,98.3,12.4l-3.3,12.6c-30.9-8-62.9-12-95.1-12
			C659.8,101.3,620.2,107.6,582.3,120z"/>
	</g>
	<g>
		<path fill="#7895A4" d="M700,833.9c-54.8,0-107.4-12.2-156.2-36.3l1.3-2.7c48.4,23.9,100.5,36,154.8,36c20.5,0,41-1.8,61-5.3
			l0.5,3C741.4,832.1,720.7,833.9,700,833.9z M784.2,823.9l-0.7-2.9c71.6-17.5,137.4-58.4,185.1-115.3l2.3,1.9
			c-23.9,28.4-51.9,52.9-83.3,72.6C855.5,800.2,820.8,814.9,784.2,823.9z M523.4,786.7c-32.3-18.7-61.3-42.2-86.3-70
			c-25.1-27.9-45.5-59.4-60.6-93.6l2.7-1.2c29.9,67.6,81.6,125.2,145.7,162.2L523.4,786.7z M985.2,689.4l-2.4-1.8
			c44.3-60.4,67.8-132,67.8-207.2l0-0.8l3,0l0,0.8C1053.5,556.2,1029.9,628.5,985.2,689.4z M367.8,601.7
			c-14.2-38.8-21.3-79.6-21.3-121.3c0-33.5,4.7-66.6,13.9-98.5l2.9,0.8c-9.1,31.6-13.8,64.4-13.8,97.7c0,41.3,7.1,81.8,21.2,120.2
			L367.8,601.7z M1049.7,456.7c-5-74.8-33.3-144.7-81.7-202.1l2.3-1.9c48.8,57.9,77.3,128.4,82.4,203.8L1049.7,456.7z M370.4,361
			l-2.8-1c12.8-35.2,31-68.1,54.3-97.7c23-29.3,50.4-54.7,81.3-75.5l1.7,2.5C443.3,230.6,395.6,291.6,370.4,361z M952.7,237.5
			c-52.2-54.2-118.7-89.7-192.4-102.4l0.5-3c37.2,6.4,73,18.8,106.3,36.7c32.6,17.5,62.1,39.9,87.8,66.6L952.7,237.5z M524.3,177.1
			l-1.5-2.6c53.6-31.1,114.9-47.6,177.3-47.6c12.6,0,25.3,0.7,37.8,2l-0.3,3c-12.4-1.3-25-2-37.5-2
			C638.2,129.9,577.4,146.3,524.3,177.1z"/>
	</g>
	<g id="XMLID_8_">
		<g id="XMLID_136_">
			<g id="XMLID_254_">
				<g id="XMLID_255_">
					<g id="XMLID_256_">
						<g id="XMLID_257_">
							<g id="XMLID_258_">
								<g id="XMLID_259_">
									<g id="XMLID_260_">
										<g id="XMLID_261_">
											<path id="XMLID_262_" fill="#F1F2F2" d="M933.9,178.9l31.2-9.1c-18.6-0.6-30,2.3-36.9,5.6c-6.9-3.3-18.3-6.2-36.9-5.6
												l31.2,9.1c-3.1,2.5-4.1,4.5-4.1,4.5l9.8-2.9l9.8,2.9C938,183.5,937,181.4,933.9,178.9z"/>
										</g>
									</g>
								</g>
							</g>
						</g>
					</g>
				</g>
			</g>
			<g id="XMLID_245_">
				<g id="XMLID_246_">
					<g id="XMLID_247_">
						<g id="XMLID_248_">
							<g id="XMLID_249_">
								<g id="XMLID_250_">
									<g id="XMLID_251_">
										<g id="XMLID_252_">
											<path id="XMLID_253_" fill="#F1F2F2" d="M882.4,297.3l31.2-9.1c-18.6-0.6-30,2.3-36.9,5.6c-6.9-3.3-18.3-6.2-36.9-5.6
												l31.2,9.1c-3.1,2.5-4.1,4.5-4.1,4.5l9.8-2.9l9.8,2.9C886.5,301.8,885.6,299.8,882.4,297.3z"/>
										</g>
									</g>
								</g>
							</g>
						</g>
					</g>
				</g>
			</g>
			<g id="XMLID_236_">
				<g id="XMLID_237_">
					<g id="XMLID_238_">
						<g id="XMLID_239_">
							<g id="XMLID_240_">
								<g id="XMLID_241_">
									<g id="XMLID_242_">
										<g id="XMLID_243_">
											<path id="XMLID_244_" fill="#F1F2F2" d="M959.9,267.6l31.2-9.1c-18.6-0.6-30,2.3-36.9,5.6c-6.9-3.3-18.3-6.2-36.9-5.6
												l31.2,9.1c-3.1,2.5-4.1,4.5-4.1,4.5l9.8-2.9l9.8,2.9C963.9,272.1,963,270.1,959.9,267.6z"/>
										</g>
									</g>
								</g>
							</g>
						</g>
					</g>
				</g>
			</g>
			<g id="XMLID_227_">
				<g id="XMLID_228_">
					<g id="XMLID_229_">
						<g id="XMLID_230_">
							<g id="XMLID_231_">
								<g id="XMLID_232_">
									<g id="XMLID_233_">
										<g id="XMLID_234_">
											<path id="XMLID_235_" fill="#F1F2F2" d="M893.5,227.7l12.3-3.6c-7.4-0.3-11.9,0.9-14.6,2.2c-2.7-1.3-7.2-2.5-14.6-2.2
												l12.3,3.6c-1.2,1-1.6,1.8-1.6,1.8l3.9-1.1l3.9,1.1C895.1,229.5,894.8,228.7,893.5,227.7z"/>
										</g>
									</g>
								</g>
							</g>
						</g>
					</g>
				</g>
			</g>
			<g id="XMLID_218_">
				<g id="XMLID_219_">
					<g id="XMLID_220_">
						<g id="XMLID_221_">
							<g id="XMLID_222_">
								<g id="XMLID_223_">
									<g id="XMLID_224_">
										<g id="XMLID_225_">
											<path id="XMLID_226_" fill="#F1F2F2" d="M1034.1,184.4l12.3-3.6c-7.4-0.3-11.9,0.9-14.6,2.2c-2.7-1.3-7.2-2.5-14.6-2.2
												l12.3,3.6c-1.2,1-1.6,1.8-1.6,1.8l3.9-1.1l3.9,1.1C1035.7,186.2,1035.4,185.4,1034.1,184.4z"/>
										</g>
									</g>
								</g>
							</g>
						</g>
					</g>
				</g>
			</g>
			<g id="XMLID_209_">
				<g id="XMLID_210_">
					<g id="XMLID_211_">
						<g id="XMLID_212_">
							<g id="XMLID_213_">
								<g id="XMLID_214_">
									<g id="XMLID_215_">
										<g id="XMLID_216_">
											<path id="XMLID_217_" fill="#F1F2F2" d="M837.1,170.6l12.3-3.6c-7.4-0.3-11.9,0.9-14.6,2.2c-2.7-1.3-7.2-2.5-14.6-2.2
												l12.3,3.6c-1.2,1-1.6,1.8-1.6,1.8l3.9-1.1l3.9,1.1C838.7,172.4,838.4,171.6,837.1,170.6z"/>
										</g>
									</g>
								</g>
							</g>
						</g>
					</g>
				</g>
			</g>
			<g id="XMLID_200_">
				<g id="XMLID_201_">
					<g id="XMLID_202_">
						<g id="XMLID_203_">
							<g id="XMLID_204_">
								<g id="XMLID_205_">
									<g id="XMLID_206_">
										<g id="XMLID_207_">
											<path id="XMLID_208_" fill="#F1F2F2" d="M767.9,222.2l12.3-3.6c-7.4-0.3-11.9,0.9-14.6,2.2c-2.7-1.3-7.2-2.5-14.6-2.2
												l12.3,3.6c-1.2,1-1.6,1.8-1.6,1.8l3.9-1.1l3.9,1.1C769.5,224,769.1,223.2,767.9,222.2z"/>
										</g>
									</g>
								</g>
							</g>
						</g>
					</g>
				</g>
			</g>
			<g id="XMLID_191_">
				<g id="XMLID_192_">
					<g id="XMLID_193_">
						<g id="XMLID_194_">
							<g id="XMLID_195_">
								<g id="XMLID_196_">
									<g id="XMLID_197_">
										<g id="XMLID_198_">
											<path id="XMLID_199_" fill="#F1F2F2" d="M875.1,253.8l18.7-5.5c-11.2-0.4-18.1,1.4-22.2,3.4c-4.1-2-11-3.8-22.2-3.4
												l18.7,5.5c-1.9,1.5-2.4,2.7-2.4,2.7l5.9-1.7l5.9,1.7C877.5,256.5,877,255.3,875.1,253.8z"/>
										</g>
									</g>
								</g>
							</g>
						</g>
					</g>
				</g>
			</g>
			<g id="XMLID_182_">
				<g id="XMLID_183_">
					<g id="XMLID_184_">
						<g id="XMLID_185_">
							<g id="XMLID_186_">
								<g id="XMLID_187_">
									<g id="XMLID_188_">
										<g id="XMLID_189_">
											<path id="XMLID_190_" fill="#F1F2F2" d="M928.3,245.7l25.5-7.5c-15.2-0.5-24.6,1.9-30.2,4.6c-5.6-2.7-15-5.1-30.2-4.6
												l25.5,7.5c-2.6,2-3.3,3.7-3.3,3.7l8-2.3l8,2.3C931.6,249.4,930.8,247.7,928.3,245.7z"/>
										</g>
									</g>
								</g>
							</g>
						</g>
					</g>
				</g>
			</g>
			<g id="XMLID_173_">
				<g id="XMLID_174_">
					<g id="XMLID_175_">
						<g id="XMLID_176_">
							<g id="XMLID_177_">
								<g id="XMLID_178_">
									<g id="XMLID_179_">
										<g id="XMLID_180_">
											<path id="XMLID_181_" fill="#F1F2F2" d="M969,232.5l37.9-11.1c-22.6-0.8-36.5,2.8-44.8,6.8c-8.3-4-22.2-7.6-44.8-6.8
												l37.9,11.1c-3.8,3-4.9,5.5-4.9,5.5l11.9-3.5L974,238C974,238,972.8,235.5,969,232.5z"/>
										</g>
									</g>
								</g>
							</g>
						</g>
					</g>
				</g>
			</g>
			<g id="XMLID_164_">
				<g id="XMLID_165_">
					<g id="XMLID_166_">
						<g id="XMLID_167_">
							<g id="XMLID_168_">
								<g id="XMLID_169_">
									<g id="XMLID_170_">
										<g id="XMLID_171_">
											<path id="XMLID_172_" fill="#F1F2F2" d="M1039.3,212.7l37.9-11.1c-22.6-0.8-36.5,2.8-44.8,6.8c-8.3-4-22.2-7.6-44.8-6.8
												l37.9,11.1c-3.8,3-4.9,5.5-4.9,5.5l11.9-3.5l11.9,3.5C1044.3,218.2,1043.1,215.7,1039.3,212.7z"/>
										</g>
									</g>
								</g>
							</g>
						</g>
					</g>
				</g>
			</g>
			<g id="XMLID_155_">
				<g id="XMLID_156_">
					<g id="XMLID_157_">
						<g id="XMLID_158_">
							<g id="XMLID_159_">
								<g id="XMLID_160_">
									<g id="XMLID_161_">
										<g id="XMLID_162_">
											<path id="XMLID_163_" fill="#F1F2F2" d="M841.8,224.1l37.9-11.1c-22.6-0.8-36.5,2.8-44.8,6.8c-8.3-4-22.2-7.6-44.8-6.8
												l37.9,11.1c-3.8,3-4.9,5.5-4.9,5.5l11.9-3.5l11.9,3.5C846.8,229.6,845.6,227.2,841.8,224.1z"/>
										</g>
									</g>
								</g>
							</g>
						</g>
					</g>
				</g>
			</g>
			<g id="XMLID_146_">
				<g id="XMLID_147_">
					<g id="XMLID_148_">
						<g id="XMLID_149_">
							<g id="XMLID_150_">
								<g id="XMLID_151_">
									<g id="XMLID_152_">
										<g id="XMLID_153_">
											<path id="XMLID_154_" fill="#F1F2F2" d="M1053.7,245.8l26.7-7.8c-15.9-0.5-25.7,2-31.6,4.8c-5.9-2.8-15.6-5.3-31.6-4.8
												l26.7,7.8c-2.7,2.1-3.5,3.9-3.5,3.9l8.4-2.5l8.4,2.5C1057.2,249.6,1056.4,247.9,1053.7,245.8z"/>
										</g>
									</g>
								</g>
							</g>
						</g>
					</g>
				</g>
			</g>
			<g id="XMLID_137_">
				<g id="XMLID_138_">
					<g id="XMLID_139_">
						<g id="XMLID_140_">
							<g id="XMLID_141_">
								<g id="XMLID_142_">
									<g id="XMLID_143_">
										<g id="XMLID_144_">
											<path id="XMLID_145_" fill="#F1F2F2" d="M927,205.4l52.4-15.3c-31.3-1.1-50.4,3.9-62,9.4c-11.5-5.6-30.7-10.5-62-9.4
												l52.4,15.3c-5.3,4.2-6.8,7.6-6.8,7.6l16.4-4.8l16.4,4.8C933.9,213.1,932.3,209.6,927,205.4z"/>
										</g>
									</g>
								</g>
							</g>
						</g>
					</g>
				</g>
			</g>
		</g>
	</g>
	<g>
		<g>
			<polygon fill="#D6B982" points="153.1,880.9 153.1,917 700.3,917 700.3,892.9 225.8,864.6 			"/>
			<polygon fill="#C1A574" points="700.3,892.9 153.1,880.9 338.9,559.9 700.3,550.9 			"/>
			<polygon fill="#D6B982" points="317.4,551.2 145.7,847.9 700.3,892.9 700.3,550.9 			"/>
			<polygon fill="#D6B982" points="1246.9,880.9 1246.9,917 699.7,917 699.7,892.9 1174.2,864.6 			"/>
			<polygon fill="#C1A574" points="699.7,892.9 1246.9,880.9 1061.1,559.9 699.7,550.9 			"/>
			<polygon fill="#FFDFA9" points="1066.8,523.9 1254.3,847.9 699.7,892.9 699.7,550.9 			"/>
			<polygon fill="#EAC798" points="699.7,892.9 275,755 413,311 699.7,550.9 			"/>
		</g>
		<polygon fill="#C1A574" points="793.8,648.8 922.7,648.8 879.5,671.4 1152.2,671.4 1125.8,625.8 1035.5,625.8 1014.5,587.7 
			825.4,587.7 		"/>
		<polygon fill="#C1A574" points="322.9,603.3 310.5,642.5 616.5,708.2 		"/>
		<polygon fill="#C1A574" points="1094.9,726.7 1165.9,737 839.7,737 		"/>
		<g>
			<polygon fill="#C1A574" points="569.3,655.8 699.2,730.5 699.2,716.1 796.4,708.3 699.2,704.4 			"/>
			<polygon fill="#442E13" points="762.8,624.6 695.5,530.2 671.1,556.3 739.8,637.2 747.4,712.2 778.9,709.7 			"/>
			<polygon fill="#6F5430" points="650.3,530.2 657.2,630.1 624,687.2 656,705.6 684.4,648.3 684.4,546.1 			"/>
			<path fill="#D59B67" d="M653.5,327.6l-9.6,9.6V543c0,0,46,30.5,70,11.7C713.9,554.7,723.3,375.1,653.5,327.6z"/>
			<path fill="#FEC77C" d="M680.5,243.1c0,0,5.1,10.2,5.1,14.1c0,3.9-2.9,8.2-1,11.9s10.6,10.4,10.6,11.9s-7.8,0.6-8.2,3.5
				s3.3,18.4-0.6,19.6s-9.8-1.2-15.3,1.8c-5.5,2.9,3.6,42.8,3.6,42.8L648.6,335c0,0,1.8-46.6,2.6-51.1s-13.5-10.4-17.4-25
				C629.8,244.2,673.3,235.1,680.5,243.1z"/>
			<path fill="#6F5430" d="M680.5,243.1h-16.6c0,0,5.5,10.4,4.9,15.3c-0.6,4.9-2.2,1.8-2.9,6.8s0.2,8.6,0.2,8.6h-2.2
				c0,0-0.6-5.9-7.2-4.1s4.8,13.7,4.8,13.7l-10.3,0.6c0,0-21.5-16.4-21.7-28.4s8.2-11.5,8.2-11.5s-3.3-2.2,1.4-6.8
				c4.7-4.7,46.9-0.8,50.5-4.9C689.5,232.3,691.6,243.1,680.5,243.1z"/>
			<path fill="#6F5430" d="M644.5,340.5c0,0-39.3-24.5-52.5-10.1c-13.2,14.4,35.4,7.8,35.4,7.8L577,388.9c0,0,2,115.4,15.7,125
				c13.6,9.6,51.8-27.1,51.8-27.1L644.5,340.5z"/>
			<g>
				<path fill="#442E13" d="M584.1,414.3l-3.7-28.8l47.1-47.3c0,0-48.6,6.6-35.4-7.8c13.2-14.4,52.5,10.1,52.5,10.1l0,34.4
					L584.1,414.3z"/>
				<path fill="#442E13" d="M644.5,438.7l0,48c0,0-38.2,36.6-51.8,27.1c-4.7-3.3-8-18.9-10.3-38.1L644.5,438.7z"/>
			</g>
			<polygon fill="#98825D" points="626.9,372.8 600.6,383.1 603.8,484.1 632.5,486.9 			"/>
			<path fill="#6F5430" d="M643.1,339.6l-3.9,11.2c88,93.7,5.6,127.6,5.6,127.6l0.9,8.5C747.7,429.6,643.1,339.6,643.1,339.6z"/>
			<path fill="#D8CCD7" d="M770.8,383.9c0,0-11.5-13.8-10.9-27.3l-2-0.7L743.3,387L770.8,383.9z"/>
			<path fill="#FBC0A2" d="M766.7,381.9c-8.1-8.5-8.9-26-8.9-26l-11.2,24.1l0.5,5c0,0,2.6,0.5,6,1l15-1.7
				C768,383.5,767.5,382.8,766.7,381.9z"/>
			<path fill="#D8CCD7" d="M770.8,383.9c0,0-14-27.2-37.5-25.9l-18.9,46.8l28.9,11.6L770.8,383.9z"/>
			<path fill="#FBC0A2" d="M766.8,377.7c0,0-11.1-15.7-29.1-9.9L717,418.7h24.9L766.8,377.7z"/>
			<path fill="#952E1F" d="M742.5,371.4l-21.7,51.3c24,0.5,23.9,5.3,23.9,5.3l26.2-44.1C760.2,363,742.5,371.4,742.5,371.4z"/>
			<path fill="#FEC77C" d="M645.9,414.3h28.8l-17.6,45.8l64.8-21.3l3.8-13.4c0,0,11.1-3.7,10.8-12.5l4.2,3.3l-4.5,9.8l18.8-3.7
				l-1.3,6.6l-5.5-1.3l-1.1,9l4.8,2.3l-1.8,2.5l-24.8,3l-86.1,47.3L645.9,414.3z"/>
			
				<rect x="718" y="437.1" transform="matrix(0.9315 -0.3639 0.3639 0.9315 -111.9125 292.6473)" fill="#6D3214" width="5.5" height="12.4"/>
			<circle fill="#D8CCD7" cx="720.7" cy="443.3" r="3.7"/>
			<g>
				<path fill="#C9AC68" d="M686.4,304.1c0,0-20.6-10.4-23.9-7.1c-1.5,1.5,2.4,10.2,6.9,19.1c-0.3-5.3,0-9.4,1.7-10.3
					C676.6,302.9,682.5,305.3,686.4,304.1z"/>
				<path fill="#C9AC68" d="M683.3,281.8c0.1,0.7,2.1,3.5,3.9,5.9c-0.2-1.4-0.2-2.5-0.2-3.1c0.4-2.9,8.2-2,8.2-3.5
					C695.2,281,683,280.5,683.3,281.8z"/>
			</g>
		</g>
		<g>
			<polygon fill="#D6B982" points="866.2,643.8 793.8,648.8 793.8,467.1 866.2,467.1 			"/>
			<rect x="793.8" y="467.1" fill="#C1A574" width="72.4" height="35.1"/>
			<rect x="793.8" y="589.5" fill="#C1A574" width="72.4" height="24.3"/>
			<polygon fill="#C1A574" points="830,352.1 793.8,467.1 866.2,467.1 			"/>
			<rect x="788.2" y="449.4" fill="#D6B982" width="83.8" height="42.1"/>
			<rect x="780.7" y="456.9" fill="#FFDFA9" width="98.7" height="26.2"/>
			<rect x="788.2" y="583.6" fill="#D6B982" width="83.8" height="22.7"/>
			<rect x="780.7" y="587.7" fill="#FFDFA9" width="98.7" height="14.1"/>
			<circle fill="#89714E" cx="830" cy="544.2" r="33"/>
			<circle fill="#C1A574" cx="830" cy="544.2" r="30.9"/>
			<circle fill="#D6B982" cx="830" cy="544.2" r="26.7"/>
			<circle fill="#FFDFA9" cx="830" cy="544.2" r="25"/>
			<path fill="#89714E" d="M831.3,532.9l0.8-1.2c0,0-1.2-0.3-0.8-1.6s0.7-1.8,0.7-1.8l-0.9-0.5c0.6-0.4,0.2-2.4-0.2-2.8
				c-0.5-0.4-0.8-2.8-0.8-2.8s-0.3,2.3-0.8,2.8c-0.5,0.4-0.8,2.4-0.2,2.8l-0.9,0.5c0,0,0.4,0.5,0.7,1.8s-0.8,1.6-0.8,1.6l0.8,1.2
				l-0.8,1.5c0,0,1.1,1.7,1.5,8.3c-0.7,0.2-1.2,0.8-1.2,1.6c0,0.2,0.1,0.5,0.1,0.7c-3.4,2.3-4.8,2.2-4.8,2.2l-0.3,1.1l-1-0.1
				c0,0,0.5,0.9-0.3,1.2c-0.8,0.3-1.2,0.2-1.2,0.2l0.2,0.8c-0.5-0.2-1.3,0.8-1.2,1.3c0,0.5-0.9,1.6-0.9,1.6s1.3-0.7,1.8-0.6
				c0.5,0.1,1.6-0.4,1.5-0.9l0.7,0.4c0,0,0-0.5,0.5-1.2c0.4-0.7,1.2-0.1,1.2-0.1l0.1-1l1.1-0.1c0,0,0.2-1.4,3.3-4.2
				c0.3,0.2,0.6,0.3,1,0.3c0.9,0,1.6-0.7,1.6-1.6c0-0.7-0.4-1.3-1.1-1.5c0.4-6.6,1.5-8.3,1.5-8.3L831.3,532.9z"/>
		</g>
		<g>
			<polygon fill="#D6B982" points="991.2,652.2 922.7,655.1 922.7,537.7 991.2,537.7 			"/>
			<polygon fill="#C1A574" points="956,537.7 922.7,537.7 922.7,655.1 970.6,653.1 			"/>
			<rect x="930.5" y="546.4" fill="#89714E" width="9" height="8.1"/>
			<rect x="930.5" y="556.6" fill="#89714E" width="9" height="8.1"/>
			<rect x="967.2" y="570.8" fill="#89714E" width="9" height="8.1"/>
			<rect x="956.9" y="570.8" fill="#89714E" width="9" height="8.1"/>
			<rect x="942.6" y="546.4" fill="#89714E" width="9" height="8.1"/>
			<rect x="951.6" y="590.2" fill="#89714E" width="9" height="8.1"/>
			<rect x="941.1" y="605.6" fill="#89714E" width="9" height="8.1"/>
			<rect x="962.7" y="590.2" fill="#89714E" width="9" height="8.1"/>
		</g>
		<g>
			<polygon fill="#D6B982" points="948,666.6 879.5,671.4 879.5,477.1 948,477.1 			"/>
			<rect x="887.3" y="491.5" fill="#89714E" width="9" height="13.4"/>
			<rect x="887.3" y="508.4" fill="#89714E" width="9" height="13.4"/>
			<rect x="924" y="531.9" fill="#89714E" width="9" height="13.4"/>
			<rect x="913.8" y="531.9" fill="#89714E" width="9" height="13.4"/>
			<rect x="899.4" y="491.5" fill="#89714E" width="9" height="13.4"/>
			<rect x="908.4" y="563.9" fill="#89714E" width="9" height="13.4"/>
			<rect x="897.9" y="589.5" fill="#89714E" width="9" height="13.4"/>
			<rect x="919.5" y="563.9" fill="#89714E" width="9" height="13.4"/>
		</g>
		<path fill="#FFFFFF" d="M1110.2,664.5c-4.3,0-8.5,0.5-12.5,1.5c0-0.5,0-1,0-1.5c0-23-22.8-41.6-51-41.6s-51,18.6-51,41.6
			c0,9.6,4,18.4,10.7,25.5c-4.1-0.7-8.3-1.1-12.7-1.1c-7.2,0-14,1-20.1,2.9c-0.1-2.6-0.6-5.1-1.6-7.4c7.5-1.2,13.1-5.6,13.1-10.8
			c0-6.1-7.7-11.1-17.2-11.1c-8.5,0-15.6,4-17,9.2c-7.9,1-14.4,6.7-16.8,14.3c-3.3-0.8-6.8-1.3-10.4-1.3c-16.4,0-30.2,9.1-34.2,21.4
			c-0.3,0-0.6,0-0.9,0c-15.6,0-28.4,6.1-29.5,13.8h306.8C1163.9,688.9,1139.7,664.5,1110.2,664.5z"/>
		<path fill="#FFFFFF" d="M398.9,385.7c4.3,0,8.5,0.5,12.5,1.5c0-0.5,0-1,0-1.5c0-23,22.8-41.6,51-41.6c28.2,0,51,18.6,51,41.6
			c0,9.6-4,18.4-10.7,25.5c4.1-0.7,8.3-1.1,12.7-1.1c7.2,0,14,1,20.1,2.9c0.1-2.6,0.6-5.1,1.6-7.4c-7.5-1.2-13.1-5.6-13.1-10.8
			c0-6.1,7.7-11.1,17.2-11.1c8.5,0,15.6,4,17,9.2c7.9,1,14.4,6.7,16.8,14.3c3.3-0.8,6.8-1.3,10.4-1.3c16.4,0,30.2,9.1,34.2,21.4
			c0.3,0,0.6,0,0.9,0c15.6,0,28.4,6.1,29.5,13.8H343.2C345.2,410.1,369.4,385.7,398.9,385.7z"/>
	</g>
</g>
</svg>
